<svg xmlns="http://www.w3.org/2000/svg" width="1171" height="241" fill="none" viewBox="0 0 1171 241"><g filter="url(#filter0_f)" opacity=".5"><path fill="url(#paint0_linear)" d="M731.735 -179.55C596.571 -157.762 516.36 -74.1815 552.576 7.13199C588.793 88.4455 727.724 136.701 862.887 114.913C998.051 93.1247 1078.26 9.54454 1042.05 -71.769C1005.83 -153.082 866.898 -201.337 731.735 -179.55Z"/><path fill="url(#paint1_linear)" d="M378 114.106C520.489 114.106 636 45.8883 636 -38.2623C636 -122.413 520.489 -190.63 378 -190.63C235.511 -190.63 120 -122.413 120 -38.2623C120 45.8883 235.511 114.106 378 114.106Z"/></g><defs><filter id="filter0_f" width="1170.74" height="550.775" x="0" y="-310.63" color-interpolation-filters="sRGB" filterUnits="userSpaceOnUse"><feFlood flood-opacity="0" result="BackgroundImageFix"/><feBlend in="SourceGraphic" in2="BackgroundImageFix" mode="normal" result="shape"/><feGaussianBlur result="effect1_foregroundBlur" stdDeviation="60"/></filter><linearGradient id="paint0_linear" x1="567.5" x2="1029.02" y1="1.04" y2="64.647" gradientUnits="userSpaceOnUse"><stop stop-color="#001AFF"/><stop offset="1" stop-color="#6EE5C2"/></linearGradient><linearGradient id="paint1_linear" x1="155" x2="511.855" y1="-11.023" y2="-162.127" gradientUnits="userSpaceOnUse"><stop stop-color="#FFC83A"/><stop offset=".504" stop-color="#FF008A"/><stop offset="1" stop-color="#6100FF"/></linearGradient></defs></svg>